# xmcd
#
# Track frame offsets:
#	150
#	20982
#	42460
#	64962
#	86470
#	108655
#	130545
#	152080
#	172237
#	193150
#
# Disc length: 2823 seconds
#
# Revision: 2
# Processed by: cddbd v1.5.2PL0 Copyright (c) Steve Scherf et al.
# Submitted via: EasyCDDAExtractor 15.3.0.1
#
DISCID=900b050a
DTITLE=Zafra Negra - ¡¡Vamo' Al Mambo!!
DYEAR=1995
DGENRE=Latin
TTITLE0=Coqueta Y Sabrosa
TTITLE1=Que Cansado Estoy
TTITLE2=Libros Tontos
TTITLE3=Al Que Le Pique (A Duo Con Kinito Mendez)
TTITLE4=Sacude La Tristeza
TTITLE5=El Negro Pintao
TTITLE6=Sufriendo Por Ella
TTITLE7=Nave De Amor
TTITLE8=El Hijo Mio
TTITLE9=Busca Otro Nido
EXTD=
EXTT0=
EXTT1=
EXTT2=
EXTT3=
EXTT4=
EXTT5=
EXTT6=
EXTT7=
EXTT8=
EXTT9=
PLAYORDER=
